<?xml version="1.0" encoding="utf-8"?>
<!-- Generator: Adobe Illustrator 21.0.1, SVG Export Plug-In . SVG Version: 6.00 Build 0)  -->
<svg version="1.1" id="Layer_1" xmlns="http://www.w3.org/2000/svg" xmlns:xlink="http://www.w3.org/1999/xlink" x="0px" y="0px"
	 viewBox="0 0 468 116.5" style="enable-background:new 0 0 468 116.5;" xml:space="preserve">
<style type="text/css">
	.st0{fill:#EA1D2D;}
	.st1{fill:#010101;}
	.st2{fill:none;stroke:#EEEEEE;stroke-width:0.5;stroke-miterlimit:10;}
	.st3{fill:none;}
	.st4{fill:#303030;}
	.st5{font-family:'OpenSans-Light';}
	.st6{font-size:7px;}
</style>
<g>
	<g id="TANTALINE">
		<polygon id="T_1_" class="st0" points="0,71.7 0,73.2 4.3,73.2 4.3,80.5 7.9,80.5 7.9,73.2 12.1,73.2 12.7,71.7 		"/>
		<path id="A_1_" class="st0" d="M22,80.5l-1.2-2.1h-5.2l-1.2,2.1h-3.7l5.8-8.8h3.8l5.5,8.8H22z M19.9,76.9
			c-0.1-0.2-0.3-0.4-0.3-0.6c-0.1-0.2-0.2-0.4-0.3-0.6c-0.1-0.2-0.2-0.4-0.3-0.6c-0.1-0.1-0.1-0.2-0.2-0.4c-0.1-0.2-0.2-0.4-0.2-0.5
			c-0.1-0.2-0.2-0.4-0.3-0.6c-0.1,0.2-0.2,0.4-0.3,0.6c-0.1,0.2-0.2,0.4-0.3,0.6c-0.1,0.2-0.2,0.4-0.3,0.5c-0.2,0.3-0.3,0.6-0.5,0.8
			s-0.3,0.5-0.5,0.8H19.9L19.9,76.9z"/>
		<path id="N_1_" class="st0" d="M35.7,80.5l-3-3.4c-0.3-0.3-0.5-0.6-0.8-0.9c-0.2-0.3-0.5-0.6-0.7-0.8c-0.2-0.3-0.4-0.5-0.6-0.7
			s-0.3-0.4-0.4-0.5c0,0.2,0.1,0.4,0.1,0.6c0,0.2,0,0.4,0.1,0.7s0,0.4,0,0.7s0,0.4,0,0.6l0.1,3.7h-3.4v-8.8h3.9l3.4,3.5
			c0.4,0.5,0.8,0.9,1.2,1.3c0.3,0.4,0.6,0.8,0.8,1.1c0-0.2-0.1-0.4-0.1-0.6c0-0.2-0.1-0.4-0.1-0.7c0-0.2,0-0.4-0.1-0.7
			c0-0.2,0-0.4,0-0.5L36,71.6h3.4v8.8L35.7,80.5L35.7,80.5z"/>
		<polygon id="T" class="st0" points="53.2,73.2 49,73.2 49,80.5 45.5,80.5 45.5,73.2 41.1,73.2 41.1,71.7 53.8,71.7 		"/>
		<path id="A" class="st0" d="M63.2,80.5L62,78.4h-5.2l-1.2,2.1h-3.7l5.8-8.8h3.8l5.5,8.8H63.2z M61.1,76.9
			c-0.1-0.2-0.3-0.4-0.3-0.6c-0.1-0.2-0.2-0.4-0.3-0.6c-0.1-0.2-0.2-0.4-0.3-0.6c-0.1-0.1-0.1-0.2-0.2-0.4c-0.1-0.2-0.2-0.4-0.2-0.5
			c-0.1-0.2-0.2-0.4-0.3-0.6c-0.1,0.2-0.2,0.4-0.3,0.6c-0.1,0.2-0.2,0.4-0.3,0.6s-0.2,0.4-0.3,0.5c-0.2,0.3-0.3,0.6-0.5,0.8
			c-0.1,0.2-0.3,0.5-0.5,0.8H61.1L61.1,76.9z"/>
		<polygon id="L" class="st0" points="77.6,80.5 68.3,80.5 68.3,71.7 71.9,71.7 71.9,79 78.2,79 		"/>
		<rect id="I" x="80.1" y="71.7" class="st0" width="3.7" height="8.8"/>
		<path id="N" class="st0" d="M95.4,80.5l-3-3.4c-0.3-0.3-0.5-0.6-0.8-0.9c-0.2-0.3-0.5-0.6-0.7-0.8c-0.2-0.3-0.4-0.5-0.6-0.7
			c-0.2-0.2-0.3-0.4-0.4-0.5c0,0.2,0.1,0.4,0.1,0.6c0,0.2,0,0.4,0.1,0.7s0,0.4,0,0.7s0,0.4,0,0.6l0.1,3.7h-3.4v-8.8h3.9l3.4,3.5
			c0.4,0.5,0.8,0.9,1.2,1.3c0.3,0.4,0.6,0.8,0.8,1.1c0-0.2-0.1-0.4-0.1-0.6c0-0.2-0.1-0.4-0.1-0.7c0-0.2,0-0.4-0.1-0.7
			c0-0.2,0-0.4,0-0.5l-0.1-3.6H99v8.8L95.4,80.5L95.4,80.5z"/>
		<polygon id="E" class="st0" points="102.1,71.7 102.1,80.5 112.4,80.5 112.4,78.9 105.7,78.9 105.7,76.6 110.7,76.6 110.7,75.2 
			105.7,75.2 105.7,73.1 111.7,73.1 112.1,71.7 		"/>
	</g>
	<path id="Crown_Bottom" class="st1" d="M53.2,48.3H46c0,0-2.1,0.1-1.9,2.2l1.6,10.1c0,0,0.5,2.1,2.5,2.2h15.4c0,0,2.3,0,2.8-2.3
		l1.8-10.1c0,0,0.2-1.9-1.7-2.1h-6.9l-2.1,5.4c0,0-0.4,1.2-1.2,1.2c0,0-0.6,0.1-1.1-1.2S53.2,48.3,53.2,48.3"/>
	<path id="Crown_Top" class="st1" d="M37.5,8.5c0,0-0.6,0.1-0.2,2.5l5.1,31.5c0,0,0.4,2.4,2.9,2.4l21,0c0,0,2.5,0,2.9-2.4L75,11
		c0,0,0.5-2.4-0.2-2.5c0,0-0.6-0.1-1.6,2.2L64,32c0,0-1,2.3-1.5-0.1l-4.8-21c0,0-0.6-2.4-1.7-2.4c0,0-1.2,0-1.8,2.4l-5,21
		c0,0-0.6,2.4-1.5,0.1l-8.6-21.3C39.1,10.7,38.2,8.4,37.5,8.5"/>
	<g>
		<path class="st1" d="M115.3,79.4c0,0.2,0,0.3-0.1,0.4c-0.1,0.1-0.1,0.3-0.2,0.4c-0.1,0.1-0.2,0.2-0.4,0.2
			c-0.1,0.1-0.3,0.1-0.4,0.1c-0.2,0-0.3,0-0.4-0.1c-0.1-0.1-0.3-0.1-0.3-0.2c-0.1-0.1-0.2-0.2-0.2-0.4c-0.1-0.2-0.1-0.3-0.1-0.4
			c0-0.2,0-0.3,0.1-0.4c0.1-0.1,0.1-0.3,0.2-0.4s0.2-0.2,0.4-0.2c0.1-0.1,0.3-0.1,0.4-0.1c0.2,0,0.3,0,0.4,0.1
			c0.1,0.1,0.3,0.1,0.3,0.2s0.2,0.2,0.2,0.3C115.3,79.1,115.3,79.2,115.3,79.4z M115.1,79.4c0-0.1,0-0.3-0.1-0.4
			c0-0.1-0.1-0.2-0.2-0.3c-0.1-0.1-0.2-0.1-0.3-0.2c-0.1,0-0.2-0.1-0.3-0.1c-0.1,0-0.3,0-0.4,0.1c-0.1,0-0.2,0.1-0.3,0.2
			s-0.1,0.2-0.2,0.3c0,0.1-0.1,0.2-0.1,0.3c0,0.1,0,0.3,0.1,0.4s0.1,0.2,0.2,0.3c0.1,0.1,0.2,0.1,0.3,0.2c0.1,0,0.2,0.1,0.4,0.1
			c0.1,0,0.3,0,0.4-0.1c0.1,0,0.2-0.1,0.3-0.2c0.1-0.1,0.1-0.2,0.2-0.3C115,79.6,115.1,79.5,115.1,79.4z M114.7,79.9L114.7,79.9
			C114.7,80,114.7,80,114.7,79.9L114.7,79.9c-0.1,0-0.1,0-0.1,0s-0.1,0-0.1,0c0,0,0,0,0,0s0,0,0,0s0,0,0,0l-0.1-0.2
			c0-0.1-0.1-0.1-0.1-0.2c0,0-0.1,0-0.2,0H114v0.4c0,0,0,0,0,0s0,0-0.1,0c-0.1,0-0.1,0-0.1,0l0,0v-1.1c0,0,0-0.1,0-0.1s0,0,0.1,0
			h0.3c0.1,0,0.2,0,0.2,0c0.1,0,0.1,0,0.1,0.1s0.1,0.1,0.1,0.1c0,0,0,0.1,0,0.1c0,0.1,0,0.2-0.1,0.2s-0.1,0.1-0.2,0.1
			c0,0,0.1,0,0.1,0.1c0,0,0.1,0.1,0.1,0.2L114.7,79.9C114.7,79.9,114.7,79.9,114.7,79.9z M114.4,79.1
			C114.4,79.1,114.4,79.1,114.4,79.1c0-0.1,0-0.1,0-0.1s0,0-0.1,0s-0.1,0-0.1,0H114v0.4h0.1c0.1,0,0.2,0,0.2-0.1
			C114.3,79.2,114.4,79.2,114.4,79.1z"/>
	</g>
</g>
<line class="st2" x1="0" y1="90.5" x2="468" y2="90.5"/>
<rect y="97.5" class="st3" width="468" height="15"/>
<text transform="matrix(1 0 0 1 30.8262 102.8198)" class="st4 st5 st6">355 South Technology Drive, Central Islip, New York 11722 | T 631.981.7081 | F 631.981.7095 | sales@tantaline.com</text>
</svg>
