<?xml version="1.0" encoding="utf-8"?>
<!-- Generator: Adobe Illustrator 21.0.1, SVG Export Plug-In . SVG Version: 6.00 Build 0)  -->
<svg version="1.1" id="Layer_1" xmlns="http://www.w3.org/2000/svg" xmlns:xlink="http://www.w3.org/1999/xlink" x="0px" y="0px"
	 viewBox="0 0 350.7 219.2" style="enable-background:new 0 0 350.7 219.2;" xml:space="preserve">
<style type="text/css">
	.st0{display:none;}
	.st1{display:inline;}
	.st2{fill:#EB0029;}
</style>
<g id="Conquer_Corrosion" class="st0">
	<text transform="matrix(1 0 0 1 78.0022 251.0415)" class="st1" style="font-family:'MyriadPro-Regular'; font-size:21.9734px;">ONQUER </text>
	<text transform="matrix(1 0 0 1 65.719 251.0415)" class="st1" style="font-family:'MyriadPro-Regular'; font-size:21.9734px;">C</text>
	<text transform="matrix(1 0 0 1 191.6692 251.0415)" class="st1" style="font-family:'MyriadPro-Regular'; font-size:21.9734px;">RROSION</text>
	<text transform="matrix(1 0 0 1 164.2474 251.0415)" class="st1" style="font-family:'MyriadPro-Regular'; font-size:21.9734px;">CO</text>
</g>
<g>
	<g id="TANTALINE">
		<polygon id="T_1_" class="st2" points="0,192.5 0,197 13.1,197 13.1,219.2 24,219.2 24,197 36.8,197 38.5,192.5 		"/>
		<path id="A_1_" class="st2" d="M67,219.2l-3.8-6.3H47.5l-3.8,6.3H32.5l17.5-26.8h11.6l16.8,26.8H67z M60.6,208.4
			c-0.4-0.6-0.8-1.2-1-1.7c-0.3-0.5-0.6-1.1-0.9-1.7c-0.3-0.6-0.7-1.3-1-1.9c-0.2-0.3-0.3-0.7-0.6-1.2c-0.2-0.5-0.5-1.1-0.7-1.6
			c-0.2-0.5-0.5-1.2-0.9-1.9c-0.4,0.7-0.7,1.3-0.9,1.8c-0.3,0.5-0.5,1.1-0.8,1.7c-0.3,0.6-0.6,1.1-0.8,1.6c-0.5,1-1,1.8-1.4,2.5
			s-0.9,1.5-1.5,2.4H60.6z"/>
		<path id="N_1_" class="st2" d="M108.5,219.2L99.4,209c-0.8-0.8-1.5-1.7-2.3-2.6c-0.7-0.9-1.4-1.7-2.1-2.5
			c-0.7-0.8-1.2-1.5-1.7-2.2c-0.5-0.7-0.9-1.2-1.1-1.6c0.1,0.5,0.2,1.1,0.2,1.8c0.1,0.7,0.1,1.3,0.2,2c0.1,0.7,0.1,1.3,0.1,2
			c0,0.7,0,1.3,0,1.8l0.3,11.4H82.6v-26.7h11.9l10.2,10.7c1.3,1.4,2.5,2.8,3.5,4.1c1,1.3,1.8,2.5,2.3,3.4c-0.1-0.5-0.2-1.1-0.3-1.7
			c-0.1-0.7-0.2-1.3-0.3-2c-0.1-0.7-0.1-1.3-0.2-2c-0.1-0.6-0.1-1.2-0.1-1.6l-0.2-10.9h10.2v26.7H108.5z"/>
		<polygon id="T" class="st2" points="162,197 149.2,197 149.2,219.2 138.3,219.2 138.3,197 125.2,197 125.2,192.5 163.7,192.5 		
			"/>
		<path id="A" class="st2" d="M192.3,219.2l-3.8-6.3h-15.7l-3.8,6.3h-11.2l17.5-26.8H187l16.8,26.8H192.3z M185.9,208.4
			c-0.4-0.6-0.8-1.2-1-1.7c-0.3-0.5-0.6-1.1-0.9-1.7c-0.3-0.6-0.7-1.3-1-1.9c-0.2-0.3-0.3-0.7-0.6-1.2c-0.2-0.5-0.5-1.1-0.7-1.6
			c-0.2-0.5-0.5-1.2-0.9-1.9c-0.4,0.7-0.7,1.3-0.9,1.8c-0.3,0.5-0.5,1.1-0.8,1.7c-0.3,0.6-0.6,1.1-0.8,1.6c-0.5,1-1,1.8-1.4,2.5
			s-0.9,1.5-1.5,2.4H185.9z"/>
		<polygon id="L" class="st2" points="236.1,219.2 207.9,219.2 207.9,192.5 218.9,192.5 218.9,214.8 238,214.8 		"/>
		<rect id="I" x="243.8" y="192.5" class="st2" width="11.2" height="26.7"/>
		<path id="N" class="st2" d="M290.2,219.2L281,209c-0.8-0.8-1.5-1.7-2.3-2.6c-0.7-0.9-1.4-1.7-2.1-2.5c-0.7-0.8-1.2-1.5-1.7-2.2
			c-0.5-0.7-0.9-1.2-1.1-1.6c0.1,0.5,0.2,1.1,0.2,1.8c0.1,0.7,0.1,1.3,0.2,2c0.1,0.7,0.1,1.3,0.1,2c0,0.7,0,1.3,0,1.8l0.3,11.4
			h-10.4v-26.7h11.9l10.2,10.7c1.3,1.4,2.5,2.8,3.5,4.1c1,1.3,1.8,2.5,2.3,3.4c-0.1-0.5-0.2-1.1-0.3-1.7c-0.1-0.7-0.2-1.3-0.3-2
			c-0.1-0.7-0.1-1.3-0.2-2c-0.1-0.6-0.1-1.2-0.1-1.6l-0.2-10.9h10.2v26.7H290.2z"/>
		<polygon id="E" class="st2" points="310.7,192.5 310.7,219.2 341.9,219.2 341.9,214.6 321.6,214.6 321.6,207.5 336.8,207.5 
			336.8,203.1 321.5,203.1 321.5,196.9 339.8,196.9 341.2,192.5 		"/>
	</g>
	<path id="Crown_Bottom" d="M161.9,121.3h-22c0,0-6.4,0.3-5.8,6.7l5,30.6c0,0,1.6,6.3,7.6,6.7h47c0,0,6.9-0.1,8.6-7l5.6-30.7
		c0,0,0.5-5.8-5.2-6.4h-21.1l-6.3,16.4c0,0-1.3,3.7-3.7,3.8c0,0-1.8,0.3-3.4-3.6C166.6,133.9,161.9,121.3,161.9,121.3"/>
	<path id="Crown_Top" d="M114.2,0.2c0,0-1.9,0.2-0.7,7.6l15.6,95.8c0,0,1.2,7.4,8.7,7.4l63.8-0.1c0,0,7.5,0,8.9-7.4L228.2,8
		c0,0,1.4-7.4-0.5-7.7c0,0-1.9-0.3-4.9,6.6l-28,64.8c0,0-3,6.9-4.6-0.4L175.6,7.3c0,0-1.7-7.3-5.3-7.3c0,0-3.7,0-5.4,7.3l-15.1,64
		c0,0-1.7,7.3-4.6,0.4L119,7C119,7,116.1,0,114.2,0.2"/>
	<g>
		<path d="M350.7,215.9c0,0.5-0.1,0.9-0.3,1.3c-0.2,0.4-0.4,0.8-0.7,1.1c-0.3,0.3-0.7,0.5-1.1,0.7s-0.8,0.3-1.3,0.3
			c-0.5,0-0.9-0.1-1.3-0.3c-0.4-0.2-0.8-0.4-1-0.7c-0.3-0.3-0.5-0.6-0.7-1.1s-0.2-0.9-0.2-1.3c0-0.5,0.1-0.9,0.3-1.3
			c0.2-0.4,0.4-0.8,0.7-1.1s0.7-0.5,1.1-0.7c0.4-0.2,0.8-0.3,1.3-0.3c0.5,0,0.9,0.1,1.3,0.2c0.4,0.2,0.8,0.4,1,0.7s0.5,0.6,0.7,1
			C350.7,215,350.7,215.4,350.7,215.9z M350.1,215.9c0-0.4-0.1-0.8-0.2-1.2s-0.3-0.6-0.6-0.9c-0.2-0.2-0.5-0.4-0.8-0.6
			c-0.3-0.1-0.7-0.2-1-0.2c-0.4,0-0.8,0.1-1.1,0.2c-0.3,0.1-0.6,0.3-0.8,0.6s-0.4,0.5-0.5,0.9s-0.2,0.7-0.2,1c0,0.4,0.1,0.8,0.2,1.2
			s0.3,0.6,0.6,0.9c0.2,0.2,0.5,0.4,0.8,0.6c0.3,0.1,0.7,0.2,1.1,0.2c0.4,0,0.8-0.1,1.1-0.2c0.3-0.1,0.6-0.3,0.8-0.6
			s0.4-0.5,0.5-0.9C350,216.7,350.1,216.3,350.1,215.9z M349,217.6C349,217.6,349,217.6,349,217.6c0,0.1,0,0.1-0.1,0.1
			c0,0-0.1,0-0.1,0c-0.1,0-0.1,0-0.2,0c-0.1,0-0.2,0-0.2,0c-0.1,0-0.1,0-0.1,0s-0.1,0-0.1-0.1s0-0.1,0-0.1l-0.2-0.6
			c-0.1-0.2-0.2-0.4-0.3-0.5s-0.3-0.1-0.5-0.1h-0.2v1.3c0,0.1,0,0.1-0.1,0.1s-0.1,0-0.3,0c-0.2,0-0.3,0-0.3,0s-0.1-0.1-0.1-0.1v-3.2
			c0-0.1,0-0.2,0.1-0.3s0.1-0.1,0.3-0.1h0.9c0.2,0,0.5,0,0.6,0.1c0.2,0,0.3,0.1,0.4,0.2s0.2,0.2,0.3,0.3c0.1,0.1,0.1,0.3,0.1,0.4
			c0,0.3-0.1,0.5-0.2,0.7s-0.4,0.3-0.6,0.3c0.1,0,0.3,0.1,0.4,0.2c0.1,0.1,0.2,0.3,0.3,0.5l0.2,0.6C349,217.5,349,217.6,349,217.6z
			 M348,215.1c0-0.1,0-0.1,0-0.2c0-0.1-0.1-0.1-0.1-0.2s-0.1-0.1-0.2-0.1c-0.1,0-0.2,0-0.3,0h-0.4v1.1h0.4c0.3,0,0.5-0.1,0.6-0.2
			C347.9,215.4,348,215.3,348,215.1z"/>
	</g>
</g>
</svg>
